<svg width="143" height="24" viewBox="0 0 143 24" fill="none" xmlns="http://www.w3.org/2000/svg">
<path d="M12.8192 24H1.32462C0.592836 24 0 23.4068 0 22.6753V1.32461C0 0.592925 0.592929 0 1.32462 0H22.6755C23.407 0 24 0.592925 24 1.32461V22.6753C24 23.4069 23.4069 24 22.6755 24H16.5597V14.7059H19.6793L20.1464 11.0838H16.5597V8.77132C16.5597 7.72264 16.8509 7.00801 18.3546 7.00801L20.2727 7.00717V3.76755C19.9409 3.7234 18.8024 3.62478 17.4778 3.62478C14.7124 3.62478 12.8192 5.31276 12.8192 8.4126V11.0838H9.69156V14.7059H12.8192V24Z" fill="#D0DAF5"/>
<path d="M83 6.36764C82.1182 6.76923 81.1687 7.04081 80.1727 7.16215C81.1898 6.5381 81.9702 5.54857 82.3379 4.36981C81.3856 4.94763 80.3333 5.368 79.2092 5.59335C78.3133 4.6125 77.0328 4 75.6156 4C72.8982 4 70.6936 6.26074 70.6936 9.04875C70.6936 9.44457 70.7359 9.82882 70.8204 10.1986C66.7281 9.98772 63.1007 7.97978 60.6707 4.92163C60.2467 5.66992 60.0044 6.5381 60.0044 7.46262C60.0044 9.21343 60.8736 10.7591 62.1949 11.6649C61.3892 11.6403 60.6285 11.4106 59.9635 11.035V11.0971C59.9635 13.5442 61.661 15.5854 63.9149 16.0477C63.5022 16.1661 63.0669 16.2254 62.6175 16.2254C62.3006 16.2254 61.9907 16.195 61.6906 16.1358C62.3175 18.1408 64.1347 19.6013 66.29 19.6403C64.6052 20.9953 62.4809 21.8028 60.1749 21.8028C59.7776 21.8028 59.3846 21.7797 59 21.7335C61.1793 23.1636 63.7684 24 66.5478 24C75.6057 24 80.5573 16.3077 80.5573 9.63525C80.5573 9.41567 80.5531 9.1961 80.5446 8.98086C81.5068 8.26869 82.3421 7.38028 83 6.36764Z" fill="#D0DAF5"/>
<path fill-rule="evenodd" clip-rule="evenodd" d="M141.806 6.26818C142.525 7.0016 142.76 8.66708 142.76 8.66708C142.76 8.66708 143 10.6234 143 12.5789V14.4128C143 16.3691 142.76 18.3246 142.76 18.3246C142.76 18.3246 142.525 19.9901 141.806 20.7235C140.984 21.5911 140.072 21.6808 139.557 21.7314C139.5 21.737 139.448 21.7421 139.402 21.7477C136.043 21.9924 131 22 131 22C131 22 124.76 21.9426 122.84 21.7568C122.749 21.7397 122.639 21.7264 122.514 21.7113C121.906 21.6378 120.951 21.5225 120.193 20.7235C119.474 19.9901 119.24 18.3246 119.24 18.3246C119.24 18.3246 119 16.3691 119 14.4128V12.5789C119 10.6234 119.24 8.66708 119.24 8.66708C119.24 8.66708 119.474 7.0016 120.193 6.26818C121.017 5.39935 121.93 5.31067 122.445 5.2606C122.501 5.25517 122.553 5.25019 122.599 5.24472C125.957 5 130.995 5 130.995 5H131.005C131.005 5 136.043 5 139.402 5.24472C139.447 5.2502 139.499 5.25518 139.555 5.26062C140.07 5.3107 140.983 5.39949 141.806 6.26818ZM128.521 9.84387L128.522 16.635L135.006 13.2511L128.521 9.84387Z" fill="#D0DAF5"/>
</svg>
